<svg width="35" height="35" viewBox="0 0 35 35" fill="none" xmlns="http://www.w3.org/2000/svg">
<path d="M33.8271 32.78C30.3122 32.78 26.788 32.78 23.2731 32.78C17.4337 32.78 11.5944 32.78 5.75501 32.78C4.06787 32.78 2.39011 32.78 0.702974 32.78C0.937298 32.9643 1.17162 33.1487 1.40595 33.333C1.40595 30.9737 1.40595 28.6145 1.40595 26.2553C1.40595 21.5369 1.40595 16.8184 1.40595 12.1C1.40595 8.5685 1.40595 5.03703 1.40595 1.51294C1.40595 1.21067 1.40595 0.915765 1.40595 0.61349C1.17162 0.797804 0.937298 0.982119 0.702974 1.16643C4.21784 1.16643 7.74208 1.16643 11.2569 1.16643C17.0963 1.16643 22.9357 1.16643 28.7751 1.16643C30.4622 1.16643 32.14 1.16643 33.8271 1.16643C33.5928 0.982119 33.3584 0.797804 33.1241 0.61349C33.1241 2.97271 33.1241 5.33194 33.1241 7.69116C33.1241 12.4096 33.1241 17.1281 33.1241 21.8465C33.1241 25.378 33.1241 28.9094 33.1241 32.4335C33.1241 32.7358 33.1241 33.0307 33.1241 33.333C33.1241 34.0481 34.5301 34.0481 34.5301 33.333C34.5301 30.9737 34.5301 28.6145 34.5301 26.2553C34.5301 21.5369 34.5301 16.8184 34.5301 12.1C34.5301 8.5685 34.5301 5.03703 34.5301 1.51294C34.5301 1.21067 34.5301 0.915765 34.5301 0.61349C34.5301 0.311214 34.2114 0.0605469 33.8271 0.0605469C30.3122 0.0605469 26.788 0.0605469 23.2731 0.0605469C17.4337 0.0605469 11.5944 0.0605469 5.75501 0.0605469C4.06787 0.0605469 2.39011 0.0605469 0.702974 0.0605469C0.318681 0.0605469 0 0.311214 0 0.61349C0 2.97271 0 5.33194 0 7.69116C0 12.4096 0 17.1281 0 21.8465C0 25.378 0 28.9094 0 32.4335C0 32.7358 0 33.0307 0 33.333C0 33.6353 0.318681 33.8859 0.702974 33.8859C4.21784 33.8859 7.74208 33.8859 11.2569 33.8859C17.0963 33.8859 22.9357 33.8859 28.7751 33.8859C30.4622 33.8859 32.14 33.8859 33.8271 33.8859C34.7363 33.8859 34.7363 32.78 33.8271 32.78Z" fill="#333333"/>
<path d="M16.6289 0.598309C16.6289 2.97231 16.6289 5.34632 16.6289 7.72032C16.6289 12.4683 16.6289 17.2163 16.6289 21.9643C16.6289 25.5179 16.6289 29.0715 16.6289 32.6177C16.6289 32.9218 16.6289 33.2186 16.6289 33.5228C16.6289 34.2424 18.0408 34.2424 18.0408 33.5228C18.0408 31.1488 18.0408 28.7748 18.0408 26.4008C18.0408 21.6528 18.0408 16.9047 18.0408 12.1567C18.0408 8.60315 18.0408 5.04956 18.0408 1.5034C18.0408 1.19923 18.0408 0.902478 18.0408 0.598309C18.0408 -0.121311 16.6289 -0.121311 16.6289 0.598309Z" fill="#FBD846"/>
<path d="M0.708225 1.41974C4.23805 1.41974 7.7773 1.41974 11.3071 1.41974C17.1714 1.41974 23.0356 1.41974 28.8998 1.41974C30.5941 1.41974 32.279 1.41974 33.9733 1.41974C34.8864 1.41974 34.8864 0.0078125 33.9733 0.0078125C30.4435 0.0078125 26.9043 0.0078125 23.3744 0.0078125C17.5102 0.0078125 11.646 0.0078125 5.78177 0.0078125C4.08745 0.0078125 2.40254 0.0078125 0.708225 0.0078125C-0.204825 0.0078125 -0.204825 1.41974 0.708225 1.41974Z" fill="#333333"/>
<path d="M33.9711 32.6721C30.4413 32.6721 26.902 32.6721 23.3722 32.6721C17.508 32.6721 11.6437 32.6721 5.77951 32.6721C4.08519 32.6721 2.40028 32.6721 0.705966 32.6721C0.941288 32.9074 1.17661 33.1427 1.41193 33.3781C1.41193 29.7918 1.41193 26.2149 1.41193 22.6286C1.41193 16.8114 1.41193 10.9942 1.41193 5.17708C1.41193 3.68985 1.41193 2.20261 1.41193 0.705966C1.17661 0.941288 0.941288 1.17661 0.705966 1.41193C4.2358 1.41193 7.77504 1.41193 11.3049 1.41193C17.1691 1.41193 23.0333 1.41193 28.8975 1.41193C30.5919 1.41193 32.2768 1.41193 33.9711 1.41193C33.7358 1.17661 33.5004 0.941288 33.2651 0.705966C33.2651 4.29227 33.2651 7.86917 33.2651 11.4555C33.2651 17.2726 33.2651 23.0898 33.2651 28.907C33.2651 30.3942 33.2651 31.8814 33.2651 33.3781C33.2651 34.2911 34.6771 34.2911 34.6771 33.3781C34.6771 29.7918 34.6771 26.2149 34.6771 22.6286C34.6771 16.8114 34.6771 10.9942 34.6771 5.17708C34.6771 3.68985 34.6771 2.20261 34.6771 0.705966C34.6771 0.320038 34.357 0 33.9711 0C30.4413 0 26.902 0 23.3722 0C17.508 0 11.6437 0 5.77951 0C4.08519 0 2.40028 0 0.705966 0C0.320038 0 0 0.320038 0 0.705966C0 4.29227 0 7.86917 0 11.4555C0 17.2726 0 23.0898 0 28.907C0 30.3942 0 31.8814 0 33.3781C0 33.764 0.320038 34.084 0.705966 34.084C4.2358 34.084 7.77504 34.084 11.3049 34.084C17.1691 34.084 23.0333 34.084 28.8975 34.084C30.5919 34.084 32.2768 34.084 33.9711 34.084C34.8841 34.084 34.8841 32.6721 33.9711 32.6721Z" fill="#333333"/>
<path d="M19.1172 15.541C19.1172 16.5482 19.1172 17.546 19.1172 18.5531C19.1172 19.4662 20.5291 19.4662 20.5291 18.5531C20.5291 17.546 20.5291 16.5482 20.5291 15.541C20.5291 14.6374 19.1172 14.6374 19.1172 15.541Z" fill="#FBD846"/>
<path d="M14.1445 15.5391C14.1445 16.5462 14.1445 17.544 14.1445 18.5512C14.1445 19.4642 15.5565 19.4642 15.5565 18.5512C15.5565 17.544 15.5565 16.5462 15.5565 15.5391C15.5565 14.6354 14.1445 14.6354 14.1445 15.5391Z" fill="#FBD846"/>
</svg>
