<svg width="26" height="26" viewBox="0 0 26 26" fill="none" xmlns="http://www.w3.org/2000/svg">
<path d="M24.8383 24.068C22.2574 24.068 19.6697 24.068 17.0888 24.068C12.8011 24.068 8.51343 24.068 4.22575 24.068C2.98693 24.068 1.75499 24.068 0.516174 24.068C0.688232 24.2033 0.860291 24.3387 1.03235 24.474C1.03235 22.7417 1.03235 21.0094 1.03235 19.2771C1.03235 15.8124 1.03235 12.3478 1.03235 8.88318C1.03235 6.29013 1.03235 3.69707 1.03235 1.10942C1.03235 0.887472 1.03235 0.670932 1.03235 0.44898C0.860291 0.584317 0.688232 0.719654 0.516174 0.854991C3.09705 0.854991 5.6848 0.854991 8.26567 0.854991C12.5534 0.854991 16.841 0.854991 21.1287 0.854991C22.3676 0.854991 23.5995 0.854991 24.8383 0.854991C24.6663 0.719654 24.4942 0.584317 24.3221 0.44898C24.3221 2.18129 24.3221 3.91361 24.3221 5.64592C24.3221 9.11055 24.3221 12.5752 24.3221 16.0398C24.3221 18.6329 24.3221 21.2259 24.3221 23.8136C24.3221 24.0355 24.3221 24.2521 24.3221 24.474C24.3221 24.9991 25.3545 24.9991 25.3545 24.474C25.3545 22.7417 25.3545 21.0094 25.3545 19.2771C25.3545 15.8124 25.3545 12.3478 25.3545 8.88318C25.3545 6.29013 25.3545 3.69707 25.3545 1.10942C25.3545 0.887472 25.3545 0.670932 25.3545 0.44898C25.3545 0.227027 25.1205 0.0429688 24.8383 0.0429688C22.2574 0.0429688 19.6697 0.0429688 17.0888 0.0429688C12.8011 0.0429688 8.51343 0.0429688 4.22575 0.0429688C2.98693 0.0429688 1.75499 0.0429688 0.516174 0.0429688C0.233999 0.0429688 0 0.227027 0 0.44898C0 2.18129 0 3.91361 0 5.64592C0 9.11055 0 12.5752 0 16.0398C0 18.6329 0 21.2259 0 23.8136C0 24.0355 0 24.2521 0 24.474C0 24.696 0.233999 24.88 0.516174 24.88C3.09705 24.88 5.6848 24.88 8.26567 24.88C12.5534 24.88 16.841 24.88 21.1287 24.88C22.3676 24.88 23.5995 24.88 24.8383 24.88C25.5059 24.88 25.5059 24.068 24.8383 24.068Z" fill="#333333"/>
<path d="M12.2148 0.44122C12.2148 2.18439 12.2148 3.92755 12.2148 5.67072C12.2148 9.15705 12.2148 12.6434 12.2148 16.1297C12.2148 18.739 12.2148 21.3483 12.2148 23.9522C12.2148 24.1755 12.2148 24.3934 12.2148 24.6168C12.2148 25.1452 13.2516 25.1452 13.2516 24.6168C13.2516 22.8736 13.2516 21.1304 13.2516 19.3873C13.2516 15.9009 13.2516 12.4146 13.2516 8.92826C13.2516 6.31896 13.2516 3.70966 13.2516 1.1058C13.2516 0.882459 13.2516 0.664563 13.2516 0.44122C13.2516 -0.0871774 12.2148 -0.0871774 12.2148 0.44122Z" fill="#FBD846"/>
<path d="M0.518445 1.0426C3.1103 1.0426 5.70907 1.0426 8.30093 1.0426C12.6069 1.0426 16.9128 1.0426 21.2188 1.0426C22.4628 1.0426 23.7 1.0426 24.9441 1.0426C25.6145 1.0426 25.6145 0.00585938 24.9441 0.00585938C22.3523 0.00585938 19.7535 0.00585938 17.1616 0.00585938C12.8557 0.00585938 8.54975 0.00585938 4.24381 0.00585938C2.99972 0.00585938 1.76254 0.00585938 0.518445 0.00585938C-0.151982 0.00585938 -0.151982 1.0426 0.518445 1.0426Z" fill="#333333"/>
<path d="M24.944 23.9902C22.3522 23.9902 19.7534 23.9902 17.1616 23.9902C12.8556 23.9902 8.54968 23.9902 4.24374 23.9902C2.99964 23.9902 1.76246 23.9902 0.518372 23.9902C0.691162 24.163 0.863953 24.3358 1.03674 24.5086C1.03674 21.8753 1.03674 19.2489 1.03674 16.6155C1.03674 12.3442 1.03674 8.07277 1.03674 3.80139C1.03674 2.70936 1.03674 1.61732 1.03674 0.518372C0.863953 0.691162 0.691162 0.863953 0.518372 1.03674C3.11023 1.03674 5.709 1.03674 8.30086 1.03674C12.6068 1.03674 16.9127 1.03674 21.2187 1.03674C22.4628 1.03674 23.7 1.03674 24.944 1.03674C24.7713 0.863953 24.5985 0.691162 24.4257 0.518372C24.4257 3.1517 24.4257 5.77812 24.4257 8.41144C24.4257 12.6828 24.4257 16.9542 24.4257 21.2256C24.4257 22.3176 24.4257 23.4097 24.4257 24.5086C24.4257 25.179 25.4624 25.179 25.4624 24.5086C25.4624 21.8753 25.4624 19.2489 25.4624 16.6155C25.4624 12.3442 25.4624 8.07277 25.4624 3.80139C25.4624 2.70936 25.4624 1.61732 25.4624 0.518372C25.4624 0.234995 25.2274 0 24.944 0C22.3522 0 19.7534 0 17.1616 0C12.8556 0 8.54968 0 4.24374 0C2.99964 0 1.76246 0 0.518372 0C0.234995 0 0 0.234995 0 0.518372C0 3.1517 0 5.77812 0 8.41144C0 12.6828 0 16.9542 0 21.2256C0 22.3176 0 23.4097 0 24.5086C0 24.792 0.234995 25.027 0.518372 25.027C3.11023 25.027 5.709 25.027 8.30086 25.027C12.6068 25.027 16.9127 25.027 21.2187 25.027C22.4628 25.027 23.7 25.027 24.944 25.027C25.6145 25.027 25.6145 23.9902 24.944 23.9902Z" fill="#333333"/>
<path d="M14.0391 11.4117C14.0391 12.1512 14.0391 12.8839 14.0391 13.6234C14.0391 14.2938 15.0758 14.2938 15.0758 13.6234C15.0758 12.8839 15.0758 12.1512 15.0758 11.4117C15.0758 10.7482 14.0391 10.7482 14.0391 11.4117Z" fill="#FBD846"/>
<path d="M10.3867 11.4097C10.3867 12.1493 10.3867 12.8819 10.3867 13.6215C10.3867 14.2919 11.4235 14.2919 11.4235 13.6215C11.4235 12.8819 11.4235 12.1493 11.4235 11.4097C11.4235 10.7462 10.3867 10.7462 10.3867 11.4097Z" fill="#FBD846"/>
</svg>
