<svg width="13" height="22" viewBox="0 0 13 22" fill="none" xmlns="http://www.w3.org/2000/svg">
<path d="M6.10634 3.32753C7.34882 3.32753 8.35927 4.38191 8.35927 5.67841C8.35927 6.97366 7.34882 8.02828 6.10634 8.02828C4.86506 8.02828 3.85342 6.97366 3.85342 5.67841C3.85342 4.38191 4.86506 3.32753 6.10634 3.32753ZM6.10634 11.3545C9.10772 11.3545 11.5475 8.80866 11.5475 5.67841C11.5475 2.54691 9.10772 3.24249e-05 6.10634 3.24249e-05C3.10568 3.24249e-05 0.665168 2.54691 0.665168 5.67841C0.665168 8.80853 3.10568 11.3545 6.10634 11.3545ZM8.30776 15.9864C9.41547 15.723 10.4838 15.2658 11.4675 14.6208C12.212 14.1312 12.4365 13.104 11.9673 12.327C11.4986 11.5483 10.5149 11.3142 9.76909 11.8038C7.54037 13.2667 4.67064 13.266 2.44311 11.8038C1.69717 11.3142 0.713563 11.5484 0.245417 12.327C-0.223807 13.1047 -3.61577e-05 14.1312 0.744709 14.6208C1.72832 15.265 2.79662 15.723 3.90433 15.9864L0.862225 19.1607C0.240266 19.8103 0.240266 20.8633 0.862823 21.5128C1.1744 21.8373 1.58205 21.9999 1.98958 21.9999C2.39783 21.9999 2.80608 21.8374 3.11766 21.5128L6.10563 18.3935L9.09623 21.5128C9.71818 22.1624 10.7273 22.1624 11.3497 21.5128C11.9729 20.8633 11.9729 19.8095 11.3497 19.1607C11.3499 19.1607 8.30776 15.9864 8.30776 15.9864Z" fill="#99CB38"/>
</svg>
