<svg width="15" height="15" viewBox="0 0 15 15" fill="none" xmlns="http://www.w3.org/2000/svg">
<path d="M6.80369 12.5221L8.65238 10.6785L11.7075 12.8034L11.0222 13.4868C10.5657 13.942 9.89562 14.1109 9.27705 13.9267C7.38597 13.3633 5.68719 12.3304 4.1807 10.8281C2.67421 9.32581 1.63849 7.63174 1.07356 5.7459C0.88876 5.12905 1.05811 4.46082 1.51461 4.00559L2.19995 3.32215L4.33075 6.36883L2.48206 8.21241M9.30087 8.49686L9.32532 8.14914C9.43073 6.65051 8.14817 5.42323 6.651 5.59009M11.4397 8.74889L11.4839 8.12052C11.6744 5.41229 9.35663 3.19442 6.65104 3.49595M13.9163 9.01147L13.9834 8.05811C14.2724 3.9492 10.7559 0.584271 6.65096 1.04175" stroke="#FBD846"/>
</svg>
