<svg width="24" height="24" viewBox="0 0 24 24" fill="none" xmlns="http://www.w3.org/2000/svg">
<path d="M10.653 20.2173L13.7278 17.1424L18.8093 20.6865L17.6694 21.8264C16.9101 22.5856 15.7956 22.8673 14.7668 22.56C11.6214 21.6203 8.79595 19.8977 6.29028 17.392C3.78462 14.8864 2.06197 12.0609 1.12234 8.91555C0.81498 7.88671 1.09666 6.77219 1.85592 6.01293L2.99581 4.87304L6.53986 9.95451L3.46502 13.0293M14.8064 13.5038L14.8471 12.9238C15.0224 10.4243 12.8892 8.37737 10.399 8.65566M18.3638 13.9241L18.4373 12.8761C18.7541 8.35912 14.8991 4.66001 10.3991 5.16292M22.483 14.3621L22.5945 12.772C23.0752 5.91889 17.2264 0.306619 10.3989 1.06963" stroke="#99CB38"/>
</svg>
