<svg width="35" height="35" viewBox="0 0 35 35" fill="none" xmlns="http://www.w3.org/2000/svg">
<path d="M19.7721 17.3722C19.7721 16.2913 19.0278 15.3889 18.0277 15.129V9.23185C18.0277 8.9103 17.7672 8.65039 17.4462 8.65039C17.1253 8.65039 16.8648 8.9103 16.8648 9.23185V15.129C16.0513 15.3406 15.4146 15.9773 15.203 16.7908H11.0502C10.7292 16.7908 10.4688 17.0507 10.4688 17.3722C10.4688 17.6938 10.7292 17.9537 11.0502 17.9537H15.203C15.4629 18.9544 16.3659 19.6981 17.4462 19.6981C18.7289 19.6981 19.7721 18.6549 19.7721 17.3722ZM17.4462 18.5351C16.8049 18.5351 16.2833 18.0136 16.2833 17.3722C16.2833 16.7309 16.8049 16.2093 17.4462 16.2093C18.0876 16.2093 18.6091 16.7309 18.6091 17.3722C18.6091 18.0136 18.0876 18.5351 17.4462 18.5351Z" fill="black"/>
<path d="M17.4408 5.74437C17.7618 5.74437 18.0223 5.48446 18.0223 5.16291V4.58146C18.0223 4.25991 17.7618 4 17.4408 4C17.1199 4 16.8594 4.25991 16.8594 4.58146V5.16291C16.8594 5.48446 17.1199 5.74437 17.4408 5.74437Z" fill="black"/>
<path d="M16.8594 29.5834V30.1649C16.8594 30.4864 17.1199 30.7463 17.4408 30.7463C17.7618 30.7463 18.0223 30.4864 18.0223 30.1649V29.5834C18.0223 29.2619 17.7618 29.002 17.4408 29.002C17.1199 29.002 16.8594 29.2619 16.8594 29.5834Z" fill="black"/>
<path d="M30.2371 17.9559C30.5581 17.9559 30.8186 17.696 30.8186 17.3744C30.8186 17.0529 30.5581 16.793 30.2371 16.793H29.6557C29.3347 16.793 29.0742 17.0529 29.0742 17.3744C29.0742 17.696 29.3347 17.9559 29.6557 17.9559H30.2371Z" fill="black"/>
<path d="M4.65177 16.793C4.3308 16.793 4.07031 17.0529 4.07031 17.3744C4.07031 17.696 4.3308 17.9559 4.65177 17.9559H5.23323C5.55419 17.9559 5.81468 17.696 5.81468 17.3744C5.81468 17.0529 5.55419 16.793 5.23323 16.793H4.65177Z" fill="black"/>
<path d="M26.0777 9.31829C26.2265 9.31829 26.3754 9.26131 26.4888 9.14792L26.8999 8.73683C27.1272 8.50948 27.1272 8.142 26.8999 7.91465C26.6725 7.6873 26.305 7.6873 26.0777 7.91465L25.6666 8.32574C25.4393 8.55309 25.4393 8.92057 25.6666 9.14792C25.78 9.26189 25.9288 9.31829 26.0777 9.31829Z" fill="#FBD846"/>
<path d="M8.40191 25.5963L7.99082 26.0074C7.76348 26.2347 7.76348 26.6022 7.99082 26.8296C8.10421 26.9429 8.25306 26.9999 8.40191 26.9999C8.55077 26.9999 8.69962 26.9429 8.813 26.8296L9.22409 26.4185C9.45144 26.1911 9.45144 25.8236 9.22409 25.5963C8.99674 25.3689 8.62868 25.3689 8.40191 25.5963Z" fill="#FBD846"/>
<path d="M9.22409 8.32574L8.813 7.91465C8.58565 7.6873 8.21817 7.6873 7.99082 7.91465C7.76348 8.142 7.76348 8.50948 7.99082 8.73683L8.40191 9.14792C8.5153 9.26131 8.66415 9.31829 8.813 9.31829C8.96186 9.31829 9.11071 9.26131 9.22409 9.14792C9.45144 8.92115 9.45144 8.55309 9.22409 8.32574Z" fill="#FBD846"/>
<path d="M17.4437 0C7.82524 0 0 7.82524 0 17.4437C0 27.0621 7.82524 34.8874 17.4437 34.8874C19.523 34.8874 21.5598 34.524 23.499 33.8065C23.8002 33.6954 23.9537 33.3605 23.8426 33.0599C23.731 32.7575 23.3972 32.604 23.0954 32.7162C21.286 33.3849 19.3846 33.7245 17.4437 33.7245C8.46659 33.7245 1.16291 26.4208 1.16291 17.4437C1.16291 8.46659 8.46659 1.16291 17.4437 1.16291C26.4208 1.16291 33.7245 8.46659 33.7245 17.4437C33.7245 19.3858 33.3849 21.2865 32.7156 23.0949C32.6046 23.3966 32.7581 23.731 33.0593 23.842C33.3605 23.9554 33.6948 23.8002 33.8065 23.499C34.524 21.561 34.8874 19.5241 34.8874 17.4437C34.8874 7.82524 27.0621 0 17.4437 0Z" fill="black"/>
<path d="M29.0747 23.8974V23.2572C29.0747 22.9357 28.8142 22.6758 28.4932 22.6758C28.1723 22.6758 27.9118 22.9357 27.9118 23.2572V23.8997C27.2774 24.0288 26.6994 24.3655 26.2732 24.8696C25.9179 25.2894 25.7534 25.8267 25.8115 26.3831C25.8709 26.9524 26.1639 27.4804 26.6157 27.8316L27.9118 28.8392V32.0012C27.2367 31.7605 26.7489 31.1209 26.7489 30.3638C26.7489 30.0423 26.4884 29.7823 26.1674 29.7823C25.8464 29.7823 25.5859 30.0423 25.5859 30.3638C25.5859 31.7674 26.5866 32.942 27.9118 33.2124V33.7235C27.9118 34.045 28.1723 34.3049 28.4932 34.3049C28.8142 34.3049 29.0747 34.045 29.0747 33.7235V33.2106C29.709 33.0815 30.287 32.7449 30.7138 32.2407C31.0691 31.8198 31.233 31.2825 31.1749 30.726C31.115 30.1574 30.8225 29.63 30.3707 29.2794L29.0747 28.2706V25.1086C29.7497 25.3493 30.2376 25.9889 30.2376 26.746C30.2376 27.0675 30.4981 27.3274 30.819 27.3274C31.14 27.3274 31.4005 27.0675 31.4005 26.746C31.4005 25.3423 30.3998 24.1678 29.0747 23.8974ZM29.6567 30.1969C29.8596 30.3545 29.9916 30.5923 30.0184 30.847C30.0434 31.0854 29.9748 31.3139 29.8259 31.4895C29.6236 31.7285 29.3619 31.8959 29.0747 31.9983V29.7434L29.6567 30.1969ZM27.3297 26.9134C27.1262 26.7553 26.9948 26.5175 26.9681 26.2622C26.9436 26.0244 27.0117 25.7965 27.1605 25.6203C27.3629 25.3813 27.6245 25.2138 27.9118 25.1115V27.3658L27.3297 26.9134Z" fill="#FBD846"/>
</svg>
