<svg width="25" height="25" viewBox="0 0 25 25" fill="none" xmlns="http://www.w3.org/2000/svg">
<path d="M14.1686 12.4473C14.1686 11.6727 13.6353 11.026 12.9186 10.8398V6.61393C12.9186 6.38352 12.732 6.19727 12.502 6.19727C12.272 6.19727 12.0853 6.38352 12.0853 6.61393V10.8398C11.5024 10.9914 11.0461 11.4477 10.8945 12.0306H7.91862C7.68862 12.0306 7.50195 12.2168 7.50195 12.4473C7.50195 12.6777 7.68862 12.8639 7.91862 12.8639H10.8945C11.0807 13.581 11.7278 14.1139 12.502 14.1139C13.4211 14.1139 14.1686 13.3664 14.1686 12.4473ZM12.502 13.2806C12.0424 13.2806 11.6686 12.9068 11.6686 12.4473C11.6686 11.9877 12.0424 11.6139 12.502 11.6139C12.9615 11.6139 13.3353 11.9877 13.3353 12.4473C13.3353 12.9068 12.9615 13.2806 12.502 13.2806Z" fill="black"/>
<path d="M12.4948 4.11523C12.7248 4.11523 12.9115 3.92898 12.9115 3.69857V3.2819C12.9115 3.05148 12.7248 2.86523 12.4948 2.86523C12.2648 2.86523 12.0781 3.05148 12.0781 3.2819V3.69857C12.0781 3.92898 12.2648 4.11523 12.4948 4.11523Z" fill="black"/>
<path d="M12.0781 21.1999V21.6165C12.0781 21.847 12.2648 22.0332 12.4948 22.0332C12.7248 22.0332 12.9115 21.847 12.9115 21.6165V21.1999C12.9115 20.9695 12.7248 20.7832 12.4948 20.7832C12.2648 20.7832 12.0781 20.9695 12.0781 21.1999Z" fill="black"/>
<path d="M21.6654 12.8665C21.8954 12.8665 22.082 12.6803 22.082 12.4499C22.082 12.2195 21.8954 12.0332 21.6654 12.0332H21.2487C21.0187 12.0332 20.832 12.2195 20.832 12.4499C20.832 12.6803 21.0187 12.8665 21.2487 12.8665H21.6654Z" fill="black"/>
<path d="M3.33464 12.0332C3.10464 12.0332 2.91797 12.2195 2.91797 12.4499C2.91797 12.6803 3.10464 12.8665 3.33464 12.8665H3.7513C3.9813 12.8665 4.16797 12.6803 4.16797 12.4499C4.16797 12.2195 3.9813 12.0332 3.7513 12.0332H3.33464Z" fill="black"/>
<path d="M18.6843 6.67685C18.791 6.67685 18.8977 6.63602 18.9789 6.55477L19.2735 6.26018C19.4364 6.09727 19.4364 5.83393 19.2735 5.67102C19.1106 5.5081 18.8473 5.5081 18.6843 5.67102L18.3898 5.9656C18.2268 6.12852 18.2268 6.39185 18.3898 6.55477C18.471 6.63643 18.5777 6.67685 18.6843 6.67685Z" fill="#FBD846"/>
<path d="M6.02029 18.3409L5.7257 18.6355C5.56279 18.7984 5.56279 19.0618 5.7257 19.2247C5.80695 19.3059 5.91362 19.3468 6.02029 19.3468C6.12695 19.3468 6.23362 19.3059 6.31487 19.2247L6.60945 18.9301C6.77237 18.7672 6.77237 18.5039 6.60945 18.3409C6.44654 18.178 6.18279 18.178 6.02029 18.3409Z" fill="#FBD846"/>
<path d="M6.60945 5.9656L6.31487 5.67102C6.15195 5.5081 5.88862 5.5081 5.7257 5.67102C5.56279 5.83393 5.56279 6.09727 5.7257 6.26018L6.02029 6.55477C6.10154 6.63602 6.2082 6.67685 6.31487 6.67685C6.42154 6.67685 6.5282 6.63602 6.60945 6.55477C6.77237 6.39227 6.77237 6.12852 6.60945 5.9656Z" fill="#FBD846"/>
<path d="M12.5 0C5.6075 0 0 5.6075 0 12.5C0 19.3925 5.6075 25 12.5 25C13.99 25 15.4496 24.7396 16.8392 24.2254C17.055 24.1458 17.165 23.9058 17.0854 23.6904C17.0054 23.4737 16.7663 23.3637 16.55 23.4442C15.2533 23.9233 13.8908 24.1667 12.5 24.1667C6.06708 24.1667 0.833333 18.9329 0.833333 12.5C0.833333 6.06708 6.06708 0.833333 12.5 0.833333C18.9329 0.833333 24.1667 6.06708 24.1667 12.5C24.1667 13.8917 23.9233 15.2538 23.4437 16.5496C23.3642 16.7658 23.4742 17.0054 23.69 17.085C23.9058 17.1663 24.1454 17.055 24.2254 16.8392C24.7396 15.4504 25 13.9908 25 12.5C25 5.6075 19.3925 0 12.5 0Z" fill="black"/>
<path d="M20.8359 17.1254V16.6667C20.8359 16.4363 20.6493 16.25 20.4193 16.25C20.1893 16.25 20.0026 16.4363 20.0026 16.6667V17.1271C19.548 17.2196 19.1339 17.4608 18.8284 17.8221C18.5739 18.1229 18.4559 18.5079 18.4976 18.9067C18.5401 19.3146 18.7501 19.6929 19.0739 19.9446L20.0026 20.6667V22.9325C19.5189 22.76 19.1693 22.3017 19.1693 21.7592C19.1693 21.5288 18.9826 21.3425 18.7526 21.3425C18.5226 21.3425 18.3359 21.5288 18.3359 21.7592C18.3359 22.765 19.053 23.6067 20.0026 23.8004V24.1667C20.0026 24.3971 20.1893 24.5833 20.4193 24.5833C20.6493 24.5833 20.8359 24.3971 20.8359 24.1667V23.7992C21.2905 23.7067 21.7047 23.4654 22.0105 23.1042C22.2651 22.8025 22.3826 22.4175 22.3409 22.0188C22.298 21.6113 22.0884 21.2333 21.7647 20.9821L20.8359 20.2592V17.9933C21.3197 18.1658 21.6693 18.6242 21.6693 19.1667C21.6693 19.3971 21.8559 19.5833 22.0859 19.5833C22.3159 19.5833 22.5026 19.3971 22.5026 19.1667C22.5026 18.1608 21.7855 17.3192 20.8359 17.1254ZM21.253 21.6396C21.3984 21.7525 21.493 21.9229 21.5122 22.1054C21.5301 22.2763 21.4809 22.44 21.3743 22.5658C21.2293 22.7371 21.0418 22.8571 20.8359 22.9304V21.3146L21.253 21.6396ZM19.5855 19.2867C19.4397 19.1733 19.3455 19.0029 19.3264 18.82C19.3089 18.6496 19.3576 18.4862 19.4643 18.36C19.6093 18.1887 19.7968 18.0687 20.0026 17.9954V19.6108L19.5855 19.2867Z" fill="#FBD846"/>
</svg>
