<svg width="49" height="48" viewBox="0 0 49 48" fill="none" xmlns="http://www.w3.org/2000/svg">
<circle cx="24.5061" cy="23.9104" r="23.8889" fill="#FBD846" fill-opacity="0.8"/>
<path d="M22.5037 13.8477C26.9586 13.8477 30.5677 17.4567 30.5677 21.9116C30.5677 23.8373 29.8943 25.6029 28.7693 26.9907L34.3122 32.5336C34.6407 32.8621 34.6407 33.3918 34.3122 33.7202C33.9838 34.0487 33.4541 34.0487 33.1256 33.7202L27.5827 28.1773C26.1949 29.3023 24.4293 29.9756 22.5037 29.9756C18.0488 29.9756 14.4397 26.3666 14.4397 21.9116C14.4397 17.4567 18.0529 13.8477 22.5037 13.8477ZM22.5037 28.3004C26.0306 28.3004 28.8924 25.4386 28.8924 21.9116C28.8924 18.3847 26.0306 15.5229 22.5037 15.5229C18.9767 15.5229 16.1149 18.3847 16.1149 21.9116C16.1149 25.4386 18.9767 28.3004 22.5037 28.3004Z" fill="black"/>
</svg>
