<svg width="17" height="17" viewBox="0 0 17 17" fill="none" xmlns="http://www.w3.org/2000/svg">
<path d="M7.69656 14.2947L9.82967 12.1675L13.3548 14.6193L12.5641 15.4079C12.0373 15.9331 11.2642 16.128 10.5504 15.9154C8.36843 15.2653 6.40829 14.0736 4.67003 12.3401C2.93178 10.6067 1.73672 8.652 1.08487 6.47604C0.871646 5.76429 1.06705 4.99325 1.59378 4.46799L2.38456 3.6794L4.84318 7.19481L2.71006 9.32201M10.5779 9.65022L10.6061 9.24901C10.7278 7.51982 9.24789 6.10373 7.52039 6.29625M13.0458 9.94103L13.0968 9.21598C13.3166 6.0911 10.6423 3.53203 7.52043 3.87994M15.9034 10.244L15.9808 9.14398C16.3143 4.40293 12.2568 0.520313 7.52034 1.04817" stroke="#99CB38" stroke-width="2"/>
</svg>
