<svg width="35" height="36" viewBox="0 0 35 36" fill="none" xmlns="http://www.w3.org/2000/svg">
<path d="M0 35.0143H34.8874L0 0.126953V35.0143ZM1.08322 30.1398H4.33289V29.0566H1.08322V25.8069H3.24967V24.7237H1.08322V21.474H4.33289V20.3908H1.08322V17.1411H3.24967V16.0579H1.08322V12.8082H4.33289V11.725H1.08322V2.74185L32.2724 33.9311H1.08322V30.1398Z" fill="#333333"/>
<path d="M7.04095 15.2921V30.1398H21.8887L7.04095 15.2921ZM8.12417 17.907L19.2738 29.0566H8.12417V17.907Z" fill="#333333"/>
<path d="M34.8649 25.4684L33.526 20.114L13.5389 0.126953L9.52344 4.14246L29.5105 24.1295L34.8649 25.4684ZM33.3755 23.979L30.064 23.1514L14.3048 7.39213L16.7886 4.9083L32.5479 20.6676L33.3755 23.979ZM13.5389 1.65863L16.0228 4.14246L13.5389 6.62629L11.0551 4.14246L13.5389 1.65863Z" fill="#FBD846"/>
</svg>
