<svg width="61" height="61" viewBox="0 0 61 61" fill="none" xmlns="http://www.w3.org/2000/svg">
<path d="M39.6326 22.7481L19.8066 38.5038C19.4127 38.8321 19.2814 39.4886 19.6753 39.8825C19.8723 40.1451 20.1349 40.2764 20.4631 40.2764C20.6601 40.2764 20.9227 40.2107 21.054 40.0794L40.8799 24.3237C41.2738 23.9954 41.4051 23.339 41.0112 22.9451C40.683 22.4855 40.0921 22.4199 39.6326 22.7481Z" fill="#333333"/>
<path d="M25.124 29.7708C25.3866 29.7708 25.6492 29.7708 25.9118 29.7051C28.6034 29.3112 30.5072 26.7509 30.0477 23.9937C29.8507 22.6807 29.1286 21.499 28.0782 20.7112C27.0278 19.9235 25.7149 19.5952 24.4019 19.7922C23.0889 19.9891 21.9072 20.7112 21.1194 21.7616C20.3317 22.812 20.0034 24.125 20.2004 25.438C20.5943 27.9983 22.7607 29.7708 25.124 29.7708ZM24.6645 21.8273C24.7958 21.8273 24.9927 21.7616 25.124 21.7616C26.5683 21.7616 27.8813 22.812 28.0782 24.3219C28.3408 25.9632 27.2248 27.4731 25.5836 27.7357C23.9423 27.9983 22.4324 26.8822 22.1698 25.241C21.9072 23.5998 23.0889 22.0899 24.6645 21.8273Z" fill="#333333"/>
<path d="M35.628 33.0547C32.8707 33.0547 30.6387 35.2868 30.6387 38.044C30.6387 40.8013 32.8707 43.0333 35.628 43.0333C38.3852 43.0333 40.6173 40.8013 40.6173 38.044C40.5516 35.2868 38.3196 33.0547 35.628 33.0547ZM35.628 40.9982C33.9868 40.9982 32.6081 39.6196 32.6081 37.9784C32.6081 36.3371 33.9868 34.9585 35.628 34.9585C37.2692 34.9585 38.6478 36.3371 38.6478 37.9784C38.5822 39.6852 37.2692 40.9982 35.628 40.9982Z" fill="#333333"/>
<path d="M60.1799 30.7559C60.1799 30.6902 60.2456 30.5589 60.2456 30.4933C60.2456 27.6704 57.2914 26.2261 54.7311 24.9788C52.8929 24.0597 50.9234 23.075 50.3982 21.8933C49.873 20.6459 50.5952 18.6108 51.3173 16.707C52.302 14.0154 53.2868 11.2582 51.4486 9.41999C49.6104 7.58183 46.9845 8.23831 44.3585 8.82915C42.5204 9.22305 40.6166 9.68259 39.3692 9.1574C38.1219 8.63221 37.0715 6.99099 36.0868 5.41541C34.6425 3.18335 33.0669 0.623047 30.3097 0.623047C27.5524 0.623047 25.9769 3.18335 24.5982 5.48106C23.6135 7.12228 22.6288 8.7635 21.3814 9.2887C20.1341 9.81389 18.1646 9.35434 16.3265 8.8948C13.7005 8.23831 11.0089 7.58183 9.2364 9.35435C7.39823 11.1925 8.31732 13.9498 9.17075 16.6414C9.82724 18.6108 10.4181 20.5803 9.89289 21.8933C9.3677 23.1406 7.52953 24.0597 5.75701 24.9788C3.26235 26.2917 0.439453 27.736 0.439453 30.4933C0.439453 30.5589 0.439453 30.6902 0.505102 30.7559C0.505102 30.8215 0.439453 30.9528 0.439453 31.0185C0.439453 33.7757 3.26235 35.2856 5.75701 36.533C7.52953 37.4521 9.3677 38.3711 9.89289 39.6185C10.4181 40.8658 9.76159 42.9009 9.17075 44.8704C8.31732 47.562 7.39823 50.3192 9.2364 52.1574C11.0746 53.9956 13.7662 53.2734 16.3265 52.6169C18.1646 52.1574 20.1341 51.6979 21.3814 52.223C22.6288 52.7482 23.6135 54.3895 24.5982 56.0307C25.9769 58.3284 27.5524 60.8887 30.3097 60.8887C33.0669 60.8887 34.7082 58.3284 36.0868 56.0963C37.0715 54.5208 38.1219 52.8795 39.3692 52.3543C40.6822 51.8292 42.5204 52.223 44.3585 52.6826C46.9188 53.2734 49.6104 53.9299 51.4486 52.0918C53.2868 50.2536 52.302 47.4963 51.3173 44.8047C50.5952 42.8353 49.873 40.8658 50.3982 39.6185C50.9234 38.3711 52.8272 37.4521 54.7311 36.533C57.2914 35.22 60.2456 33.7757 60.2456 31.0185C60.2456 30.8872 60.1799 30.8215 60.1799 30.7559ZM53.812 34.7605C51.6456 35.8765 49.3478 36.9925 48.5601 38.8963C47.7066 40.8658 48.6257 43.2292 49.4135 45.5269C50.2013 47.6933 50.9891 49.794 50.0043 50.7131C48.954 51.7635 46.9188 51.304 44.7524 50.7788C42.586 50.2536 40.4196 49.794 38.5158 50.5818C36.6776 51.3696 35.4959 53.2078 34.3799 55.0459C33.1326 57.0154 31.9509 58.9192 30.244 58.9192C28.6028 58.9192 27.4211 57.0154 26.1738 54.9803C25.0578 53.0765 23.8761 51.1727 22.0379 50.3849C20.1341 49.5971 17.902 50.1223 15.7356 50.7131C13.5692 51.2383 11.5341 51.7635 10.4837 50.7788C9.499 49.794 10.1555 47.6933 10.8776 45.5269C11.5998 43.2292 12.3875 40.8658 11.5341 38.962C10.7463 37.0582 8.57991 35.9421 6.47915 34.8917C4.31274 33.7757 2.27762 32.7253 2.27762 31.0841C2.27762 31.0185 2.27762 30.8872 2.21197 30.8215C2.21197 30.7559 2.27762 30.6246 2.27762 30.5589C2.27762 28.9834 4.31274 27.933 6.47915 26.7513C8.57991 25.7009 10.7463 24.5849 11.5341 22.6811C12.3219 20.7116 11.5998 18.3482 10.8776 16.1162C10.1555 13.8841 9.499 11.7834 10.4837 10.8643C11.5341 9.81389 13.5692 10.3391 15.7356 10.9299C17.902 11.4551 20.1341 12.0459 22.0379 11.2582C23.8761 10.4704 25.0578 8.56656 26.1738 6.66274C27.4211 4.62763 28.5372 2.72381 30.244 2.72381C31.9509 2.72381 33.1326 4.62763 34.3799 6.59709C35.5616 8.43526 36.7433 10.2734 38.5158 11.0612C40.4196 11.849 42.586 11.3238 44.7524 10.8643C46.9188 10.3391 48.954 9.87954 50.0043 10.9299C50.9891 11.849 50.2013 13.9498 49.4135 16.1162C48.5601 18.4139 47.7066 20.7772 48.5601 22.7467C49.3478 24.6505 51.6456 25.7666 53.812 26.8826C56.1097 27.9986 58.2104 29.1146 58.2104 30.6902C58.2104 30.7559 58.2104 30.8872 58.2761 30.9528C58.2761 31.0185 58.2104 31.1498 58.2104 31.2154C58.2761 32.5284 56.1097 33.6444 53.812 34.7605Z" fill="#FBD846"/>
</svg>
