<svg width="27" height="34" viewBox="0 0 27 34" fill="none" xmlns="http://www.w3.org/2000/svg">
<path d="M25.0895 17.3164V31.3666C25.0895 32.0284 24.6349 32.5375 24.044 32.5375H2.99858C2.40767 32.5375 1.95312 32.0284 1.95312 31.3666V17.3164" stroke="#333333" stroke-width="1.5"/>
<path fill-rule="evenodd" clip-rule="evenodd" d="M26 16.092C26 16.7537 25.5455 17.2628 24.9545 17.2628H2.04545C1.45455 17.2628 1 16.7537 1 16.092V10.8486C1 10.1868 1.45455 9.67773 2.04545 9.67773H24.9545C25.5455 9.67773 26 10.1868 26 10.8486V16.092Z" stroke="#333333" stroke-width="1.5"/>
<path fill-rule="evenodd" clip-rule="evenodd" d="M20.2248 5.96339C19.2248 7.08334 14.6794 10.3414 13.6339 9.22141C12.6339 8.10147 15.543 2.9599 16.543 1.83996C17.543 0.720014 19.1794 0.720014 20.2248 1.83996C21.2248 2.9599 21.2248 4.84345 20.2248 5.96339Z" stroke="#FBD846" stroke-width="1.5"/>
<path fill-rule="evenodd" clip-rule="evenodd" d="M6.73047 5.96327C7.73047 7.08321 12.3214 10.3921 13.3214 9.27219C14.3214 8.15225 11.4123 3.01068 10.3668 1.89074C9.36683 0.770795 7.73047 0.770795 6.73047 1.89074C5.73047 2.95978 5.73047 4.79241 6.73047 5.96327Z" stroke="#FBD846" stroke-width="1.5"/>
<path d="M10.3613 13.8016C10.3613 13.8016 11.0431 11.4599 13.6795 10.2891V32.4843" stroke="#FBD846" stroke-width="1.5"/>
<path d="M13.5 10.3398C13.5 10.3398 14.5455 14.4124 18.1818 15.0232" stroke="#FBD846" stroke-width="1.5"/>
</svg>
