<svg width="34" height="35" viewBox="0 0 34 35" fill="none" xmlns="http://www.w3.org/2000/svg">
<path fill-rule="evenodd" clip-rule="evenodd" d="M14.3593 26.9736C13.6631 26.7084 12.5659 25.9695 10.9638 25.2355C10.0566 24.8208 8.06088 24.2136 7.29822 23.7538C6.62991 23.3439 6.50188 23.0566 6.27724 22.5184C5.87719 21.5611 6.35581 20.3391 7.36248 19.8577C8.12225 19.4928 9.02087 19.6053 9.84255 19.728C10.338 19.8013 11.0649 20.0861 11.4906 20.2377C11.8817 20.3759 12.0054 20.4558 12.4421 20.6351C13.0197 20.8726 13.2477 21.0252 12.8405 20.6257C12.3235 19.991 11.4479 18.9026 10.583 17.9949C9.92632 17.307 9.80828 17.2083 9.27133 16.7001C8.70105 16.1586 8.33532 15.7589 7.75248 15.1715C7.34242 14.7547 6.53317 13.8859 6.13873 13.3604C5.59805 12.6426 4.80348 11.4195 4.94321 10.5527C5.05288 9.87383 5.84443 9.21114 6.55282 9.16167C7.48018 9.09651 8.51108 9.89456 8.94592 10.1991C9.72755 10.7467 10.4533 11.4865 11.3157 12.5122C12.4131 13.8179 14.0392 15.5681 14.3071 15.9809C14.0288 15.4445 13.2455 14.4341 13.0353 13.8853C12.8446 13.3877 12.9034 12.6403 13.286 12.2167C13.6101 11.8589 14.0477 11.5358 14.5075 11.3748C14.9948 11.2029 15.6407 11.2408 15.9891 11.4333C17.017 12.0042 18.103 13.7824 18.0664 13.6747C17.868 13.0768 17.1271 11.8957 17.1223 11.2211C17.1185 10.7767 17.4345 10.1833 17.6688 9.97709C18.0319 9.65881 18.5181 9.33494 18.9965 9.16085C19.3825 9.02147 20.0989 9.15423 20.3447 9.27693C20.9369 9.57623 21.9299 10.8342 22.269 11.2805C22.4088 11.4652 22.0405 10.6701 22.0533 10.0059C22.0758 8.77268 23.9602 7.3991 25.22 9.31498C25.8067 10.2092 25.7744 10.1714 26.1459 10.7871C26.5823 11.5106 26.8283 11.9558 27.1053 12.5025C27.4 13.0881 28.0442 14.4249 28.2409 15.1422C28.376 15.6352 28.553 16.8205 28.5068 17.6233C28.5068 17.6233 28.0754 20.2693 28.3887 21.1548C28.6998 22.0398 28.7572 22.0128 29.0622 22.5903C29.3664 23.1664 30.0081 23.7794 30.0081 23.7794C30.0081 23.7794 28.9857 24.5947 28.3295 24.8589C27.7351 25.0973 26.4083 24.4128 26.0344 24.1842C25.5194 23.8689 25.0646 24.2635 25.0709 24.7216C25.0828 25.4454 24.9928 26.8109 24.5557 27.1567C23.702 27.8321 21.7387 28.9154 20.2276 29.8061C20.2276 29.8061 19.6301 28.2369 18.7669 28.0954C18.1261 27.9877 16.9561 27.6915 16.2885 27.5675L14.3593 26.9736Z" fill="white"/>
<path fill-rule="evenodd" clip-rule="evenodd" d="M14.3593 26.9736C13.6631 26.7084 12.5659 25.9695 10.9638 25.2355C10.0566 24.8208 8.06088 24.2136 7.29822 23.7538C6.62991 23.3439 6.50188 23.0566 6.27724 22.5184C5.87719 21.5611 6.35581 20.3391 7.36248 19.8577C8.12225 19.4928 9.02087 19.6053 9.84255 19.728C10.338 19.8013 11.0649 20.0861 11.4906 20.2377C11.8817 20.3759 12.0054 20.4558 12.4421 20.6351C13.0197 20.8726 13.2477 21.0252 12.8405 20.6257C12.3235 19.991 11.4479 18.9026 10.583 17.9949C9.92632 17.307 9.80828 17.2083 9.27133 16.7001C8.70105 16.1586 8.33532 15.7589 7.75248 15.1715C7.34242 14.7547 6.53317 13.8859 6.13873 13.3604C5.59805 12.6426 4.80348 11.4195 4.94321 10.5527C5.05288 9.87383 5.84443 9.21114 6.55281 9.16167C7.48018 9.09651 8.51108 9.89456 8.94592 10.1991C9.72755 10.7467 10.4533 11.4865 11.3157 12.5122C12.4131 13.8179 14.0392 15.5681 14.3071 15.9809C14.0288 15.4445 13.2455 14.4341 13.0353 13.8853C12.8446 13.3877 12.9034 12.6403 13.286 12.2167C13.6101 11.8589 14.0477 11.5358 14.5075 11.3748C14.9948 11.2029 15.6407 11.2408 15.9891 11.4333C17.017 12.0042 18.103 13.7824 18.0664 13.6747C17.868 13.0768 17.1271 11.8957 17.1223 11.2211C17.1185 10.7767 17.4345 10.1833 17.6688 9.97709C18.0319 9.65881 18.5181 9.33494 18.9965 9.16085C19.3825 9.02147 20.0989 9.15423 20.3447 9.27693C20.9369 9.57623 21.9299 10.8342 22.269 11.2805C22.4088 11.4652 22.0405 10.6701 22.0533 10.0059C22.0758 8.77268 23.9602 7.3991 25.22 9.31498C25.8067 10.2092 25.7744 10.1714 26.1459 10.7871C26.5823 11.5106 26.8283 11.9558 27.1053 12.5025C27.4 13.0881 28.0442 14.4249 28.2409 15.1422C28.376 15.6352 28.553 16.8205 28.5068 17.6233C28.5068 17.6233 28.0754 20.2693 28.3887 21.1548C28.6998 22.0398 28.7572 22.0128 29.0622 22.5903C29.3664 23.1664 30.0081 23.7794 30.0081 23.7794C30.0081 23.7794 28.9857 24.5947 28.3295 24.8589C27.7351 25.0973 26.4083 24.4128 26.0344 24.1842C25.5194 23.8689 25.0646 24.2635 25.0709 24.7216C25.0828 25.4454 24.9928 26.8109 24.5557 27.1567C23.702 27.8321 21.7387 28.9154 20.2276 29.8061C20.2276 29.8061 19.6301 28.2369 18.7669 28.0954C18.1261 27.9877 16.9561 27.6915 16.2885 27.5675L14.3593 26.9736Z" stroke="black" stroke-width="0.75" stroke-linecap="round" stroke-linejoin="round"/>
<path d="M26.0568 20.5941L23.1367 15.7539" stroke="black" stroke-width="0.75" stroke-linecap="round"/>
<path d="M23.2764 22.2917L20.3223 17.4453" stroke="black" stroke-width="0.75" stroke-linecap="round"/>
<path d="M17.6113 19.1445L20.5327 23.921" stroke="black" stroke-width="0.75" stroke-linecap="round"/>
</svg>
