<svg width="22" height="16" viewBox="0 0 22 16" fill="none" xmlns="http://www.w3.org/2000/svg">
<path d="M0 0V0.825608V14.6703V15.4959H21.6222V14.6703V0.825608V0H0ZM13.1986 7.9512L11.236 9.92315C10.9974 10.1448 10.6241 10.1444 10.3956 9.93252L8.42329 7.9512L8.44059 7.93427L1.31427 0.72074H20.3126L13.1813 7.93463L13.1986 7.9512ZM7.39623 7.94003L0.72074 14.3625V1.23355L7.39623 7.94003ZM7.90436 8.45068L9.89468 10.4504C10.1502 10.6886 10.4781 10.8082 10.8075 10.8082C11.1401 10.8082 11.4742 10.6861 11.7376 10.4406L13.7182 8.45068L20.2903 14.7752H1.32832L7.90436 8.45068ZM14.2263 7.94039L20.9015 1.23319V14.3625L14.2263 7.94039Z" fill="#99CB38"/>
</svg>
