<svg width="22" height="13" viewBox="0 0 22 13" fill="none" xmlns="http://www.w3.org/2000/svg">
<path d="M21.0242 10.8908C20.9986 10.8356 20.9748 10.7899 20.9526 10.7532C20.5859 10.0928 19.8851 9.28209 18.8507 8.32098L18.8288 8.29897L18.8179 8.28817L18.8068 8.27711H18.7957C18.3263 7.82957 18.029 7.52865 17.9045 7.37459C17.6767 7.08111 17.6256 6.78404 17.7501 6.48305C17.8381 6.25563 18.1685 5.77537 18.7406 5.04159C19.0415 4.65271 19.2798 4.34104 19.4558 4.10623C20.7251 2.41874 21.2754 1.34042 21.1066 0.870826L21.041 0.761089C20.997 0.695023 20.8833 0.634585 20.7001 0.579466C20.5165 0.524463 20.2818 0.515367 19.9956 0.552023L16.8263 0.573916C16.7749 0.555723 16.7016 0.557419 16.6061 0.579466C16.5107 0.601514 16.463 0.612576 16.463 0.612576L16.4078 0.640136L16.364 0.673245C16.3273 0.695139 16.287 0.733645 16.2429 0.788687C16.1991 0.843536 16.1624 0.907905 16.1332 0.981256C15.7881 1.86898 15.3958 2.69434 14.9555 3.45729C14.684 3.91223 14.4347 4.30651 14.207 4.64034C13.9797 4.97406 13.7889 5.21994 13.635 5.37755C13.4808 5.53531 13.3416 5.6617 13.2167 5.75717C13.0919 5.85269 12.9967 5.89304 12.9307 5.87828C12.8646 5.86352 12.8024 5.84887 12.7434 5.83423C12.6408 5.76816 12.5582 5.67831 12.496 5.56461C12.4334 5.4509 12.3913 5.30778 12.3693 5.13537C12.3474 4.96285 12.3345 4.81445 12.3308 4.68968C12.3274 4.56506 12.3289 4.3888 12.3364 4.16139C12.344 3.93386 12.3474 3.77991 12.3474 3.6992C12.3474 3.42036 12.3529 3.11775 12.3638 2.79128C12.3749 2.4648 12.3839 2.20613 12.3914 2.01556C12.3989 1.82481 12.4023 1.62299 12.4023 1.41022C12.4023 1.19745 12.3894 1.03059 12.3638 0.909486C12.3385 0.788533 12.2997 0.671126 12.2485 0.557303C12.1971 0.443596 12.1218 0.355637 12.0229 0.293195C11.9239 0.23083 11.8008 0.181338 11.6543 0.144567C11.2654 0.0565691 10.7702 0.00896641 10.1685 0.00156583C8.80399 -0.0130812 7.92722 0.0750318 7.53838 0.26579C7.38432 0.346386 7.2449 0.456509 7.12025 0.595809C6.98815 0.757273 6.96973 0.845386 7.06509 0.859879C7.50535 0.925829 7.81702 1.08359 8.00045 1.33302L8.06656 1.46518C8.11797 1.56054 8.16932 1.72937 8.2207 1.97143C8.272 2.21349 8.30511 2.48126 8.31968 2.77459C8.3563 3.31024 8.3563 3.76877 8.31968 4.15021C8.28295 4.5318 8.24826 4.82886 8.21515 5.04163C8.18204 5.2544 8.13254 5.42681 8.06656 5.55882C8.00045 5.69088 7.95647 5.77159 7.93442 5.80088C7.91242 5.83018 7.89407 5.84864 7.8795 5.85589C7.78414 5.89243 7.68496 5.91105 7.58232 5.91105C7.47952 5.91105 7.35487 5.85963 7.20817 5.75687C7.0615 5.65411 6.90929 5.51296 6.75153 5.33318C6.59376 5.15337 6.41584 4.9021 6.21768 4.57933C6.01968 4.25655 5.81424 3.87508 5.60147 3.4349L5.42544 3.11567C5.31539 2.9103 5.16507 2.61127 4.97431 2.21885C4.78343 1.82627 4.61472 1.44653 4.46806 1.0797C4.40944 0.925636 4.32136 0.808345 4.20399 0.727632L4.14891 0.694522C4.11229 0.665228 4.05351 0.634123 3.97288 0.600974C3.89213 0.567864 3.80787 0.544121 3.71976 0.529512L0.704443 0.551406C0.396316 0.551406 0.18725 0.62121 0.0771665 0.760626L0.0331099 0.826576C0.0111009 0.863309 0 0.921975 0 1.00273C0 1.08344 0.022009 1.1825 0.0660656 1.29979C0.506246 2.33433 0.984933 3.33206 1.50213 4.29313C2.01932 5.25421 2.46875 6.02838 2.85015 6.61495C3.23163 7.20195 3.62046 7.75595 4.01667 8.27669C4.41287 8.79762 4.67512 9.13145 4.80344 9.27812C4.93191 9.42505 5.03282 9.5349 5.10617 9.60825L5.38134 9.87232C5.55741 10.0484 5.81597 10.2593 6.15713 10.5051C6.49837 10.7509 6.87614 10.993 7.29065 11.2316C7.70524 11.4699 8.18755 11.6643 8.73785 11.8147C9.28808 11.9652 9.82362 12.0256 10.3445 11.9964H11.6101C11.8668 11.9743 12.0613 11.8936 12.1934 11.7543L12.2372 11.6991C12.2667 11.6553 12.2942 11.5873 12.3197 11.4957C12.3454 11.404 12.3582 11.303 12.3582 11.1931C12.3507 10.8777 12.3747 10.5935 12.4296 10.3404C12.4844 10.0874 12.547 9.8966 12.6169 9.76814C12.6868 9.63978 12.7656 9.53147 12.8534 9.44367C12.9413 9.35567 13.004 9.30236 13.0408 9.28401C13.0773 9.26555 13.1065 9.25302 13.1285 9.24551C13.3046 9.18684 13.5118 9.24366 13.7505 9.41622C13.9889 9.58863 14.2126 9.80151 14.4218 10.0545C14.6309 10.3078 14.8822 10.5919 15.1756 10.9073C15.4692 11.2228 15.7259 11.4574 15.9459 11.6117L16.1659 11.7437C16.3128 11.8318 16.5036 11.9125 16.7384 11.9859C16.9728 12.0592 17.1782 12.0775 17.3545 12.0409L20.1716 11.9969C20.4503 11.9969 20.6671 11.9508 20.8209 11.8593C20.975 11.7676 21.0665 11.6665 21.0961 11.5566C21.1255 11.4466 21.1271 11.3218 21.1016 11.1823C21.0755 11.0431 21.0498 10.9458 21.0242 10.8908Z" fill="#99CB38"/>
</svg>
