<svg width="58" height="57" viewBox="0 0 58 57" fill="none" xmlns="http://www.w3.org/2000/svg">
<path d="M57.502 56.9678H0.902824L57.502 0.509766V56.9678ZM55.7446 49.0794H50.4725V47.3264H55.7446V42.0675H52.2299V40.3145H55.7446V35.0556H50.4725V33.3026H55.7446V28.0437H52.2299V26.2907H55.7446V21.0318H50.4725V19.2789H55.7446V4.74144L5.14508 55.2148H55.7446V49.0794Z" fill="#333333"/>
<path d="M46.0791 25.0514V49.0794H21.9911L46.0791 25.0514ZM44.3218 29.2831L26.2333 47.3264H44.3218V29.2831Z" fill="#333333"/>
<path d="M0.936398 41.5197L3.10849 32.8548L35.5343 0.509766L42.0488 7.00804L9.623 39.353L0.936398 41.5197ZM3.35276 39.1094L8.72499 37.7701L34.2919 12.267L30.2623 8.24739L4.69538 33.7505L3.35276 39.1094ZM35.5343 2.98847L31.5047 7.00804L35.5343 11.0276L39.5639 7.00804L35.5343 2.98847Z" fill="#FBD846"/>
</svg>
