<svg width="57" height="57" viewBox="0 0 57 57" fill="none" xmlns="http://www.w3.org/2000/svg">
<path d="M55.9119 4.5284H45.3368L32.299 0.274789C31.5161 0.0186133 30.686 -0.0598026 29.8689 0.0452474C29.0519 0.150297 28.2686 0.436171 27.5759 0.882066L19.7201 5.92888C19.6354 5.98325 19.5622 6.05378 19.5047 6.13644C19.4472 6.2191 19.4065 6.31228 19.385 6.41065C19.3635 6.50903 19.3616 6.61067 19.3794 6.70978C19.3972 6.80888 19.4344 6.90352 19.4887 6.98827C19.5431 7.07303 19.6136 7.14625 19.6963 7.20374C19.7789 7.26124 19.8721 7.3019 19.9705 7.32338C20.0689 7.34487 20.1705 7.34677 20.2696 7.32898C20.3687 7.31119 20.4634 7.27405 20.5481 7.21968L28.4039 2.17955C28.9056 1.85737 29.4729 1.65126 30.0644 1.57628C30.6559 1.50131 31.2566 1.55934 31.8228 1.74616L44.9809 6.02653C45.0573 6.05164 45.1373 6.06429 45.2177 6.06398H55.1468V18.9465H49.4419C49.3013 18.9467 49.1635 18.9855 49.0434 19.0586C48.9234 19.1317 48.8257 19.2364 48.761 19.3612C47.9017 20.8148 46.5893 21.9463 45.0251 22.5822V19.1351C46.2544 18.6108 47.5666 17.6985 48.4039 16.1081C48.4511 16.0189 48.4802 15.9212 48.4896 15.8208C48.499 15.7203 48.4886 15.6189 48.4588 15.5224C48.4291 15.426 48.3806 15.3364 48.3162 15.2586C48.2519 15.1809 48.1728 15.1166 48.0835 15.0695C47.9943 15.0223 47.8967 14.9932 47.7962 14.9838C47.6957 14.9743 47.5943 14.9848 47.4979 15.0145C47.4014 15.0443 47.3118 15.0927 47.2341 15.1571C47.1563 15.2215 47.0921 15.3006 47.0449 15.3898C45.5869 18.1774 41.962 18.3018 41.9419 18.3018C37.0864 18.3018 35.6845 14.9123 35.6284 14.7718C35.5727 14.6271 35.4746 14.5027 35.3468 14.4148C35.2191 14.3269 35.0678 14.2798 34.9127 14.2796H27.707C27.4338 14.2866 27.1619 14.2388 26.9074 14.1391C26.6529 14.0393 26.421 13.8896 26.2252 13.6988C26.0295 13.5081 25.8739 13.28 25.7677 13.0282C25.6615 12.7763 25.6068 12.5057 25.6068 12.2324C25.6068 11.9591 25.6615 11.6885 25.7677 11.4366C25.8739 11.1848 26.0295 10.9567 26.2252 10.7659C26.421 10.5751 26.6529 10.4255 26.9074 10.3257C27.1619 10.226 27.4338 10.1782 27.707 10.1852H36.3079C36.4113 10.1895 36.5145 10.1728 36.6114 10.1362C36.7082 10.0996 36.7967 10.0438 36.8714 9.97217C36.9461 9.90051 37.0055 9.81448 37.0461 9.71926C37.0868 9.62403 37.1077 9.52157 37.1077 9.41805C37.1077 9.31452 37.0868 9.21207 37.0461 9.11684C37.0055 9.02162 36.9461 8.93559 36.8714 8.86393C36.7967 8.79227 36.7082 8.73646 36.6114 8.69985C36.5145 8.66325 36.4113 8.64661 36.3079 8.65093H27.707C27.2309 8.64173 26.7577 8.72756 26.3151 8.90341C25.8725 9.07927 25.4694 9.3416 25.1294 9.67509C24.7894 10.0086 24.5194 10.4065 24.335 10.8456C24.1506 11.2847 24.0557 11.7562 24.0557 12.2324C24.0557 12.7086 24.1506 13.1801 24.335 13.6192C24.5194 14.0583 24.7894 14.4562 25.1294 14.7897C25.4694 15.1232 25.8725 15.3855 26.3151 15.5614C26.7577 15.7372 27.2309 15.8231 27.707 15.8138H34.4325C35.0732 16.9896 37.1251 19.8361 41.9579 19.8361C42.4744 19.8132 42.9876 19.742 43.4908 19.6234V30.9931C43.4905 31.2931 43.3712 31.5807 43.159 31.7929C42.9469 32.005 42.6592 32.1244 42.3592 32.1247H2.77524C2.47556 32.1244 2.1882 32.0054 1.97592 31.7939C1.76364 31.5824 1.64369 31.2954 1.64228 30.9958V11.3168C1.64263 11.0168 1.76197 10.7291 1.97411 10.517C2.18626 10.3049 2.47388 10.1855 2.7739 10.1852H22.3338C22.4373 10.1895 22.5405 10.1728 22.6373 10.1362C22.7342 10.0996 22.8226 10.0438 22.8973 9.97217C22.972 9.90051 23.0315 9.81448 23.0721 9.71926C23.1127 9.62403 23.1336 9.52157 23.1336 9.41805C23.1336 9.31452 23.1127 9.21207 23.0721 9.11684C23.0315 9.02162 22.972 8.93559 22.8973 8.86393C22.8226 8.79227 22.7342 8.73646 22.6373 8.69985C22.5405 8.66325 22.4373 8.64661 22.3338 8.65093H2.77524C2.06897 8.6534 1.39233 8.93505 0.892914 9.43447C0.393502 9.93388 0.111843 10.6105 0.109375 11.3168V30.9958C0.111843 31.702 0.393502 32.3787 0.892914 32.8781C1.39233 33.3775 2.06897 33.6592 2.77524 33.6616H42.3592C43.0655 33.6592 43.7421 33.3775 44.2416 32.8781C44.741 32.3787 45.0226 31.702 45.0251 30.9958V24.2074C47.7752 23.3312 49.3148 21.3476 49.8766 20.4794H55.9119C56.1153 20.4794 56.3104 20.3987 56.4544 20.255C56.5983 20.1113 56.6794 19.9164 56.6797 19.713V5.29619C56.6797 5.09256 56.5988 4.89727 56.4548 4.75328C56.3108 4.60929 56.1156 4.5284 55.9119 4.5284Z" fill="black"/>
<path d="M5.30819 25.1963V17.1104C6.1152 16.9553 6.85717 16.5618 7.43826 15.9807C8.01935 15.3996 8.41286 14.6577 8.56795 13.8506H21.6672C21.8651 13.8424 22.0522 13.7579 22.1893 13.615C22.3264 13.472 22.403 13.2816 22.403 13.0835C22.403 12.8854 22.3264 12.695 22.1893 12.5521C22.0522 12.4091 21.8651 12.3247 21.6672 12.3164H7.87373C7.6701 12.3164 7.47481 12.3973 7.33082 12.5413C7.18683 12.6853 7.10594 12.8806 7.10594 13.0842C7.10647 13.4214 7.04055 13.7554 6.91196 14.0671C6.78336 14.3788 6.59461 14.6622 6.35649 14.9009C6.11836 15.1397 5.83553 15.3291 5.52415 15.4585C5.21276 15.588 4.87894 15.6547 4.54174 15.6551C4.34019 15.6565 4.14727 15.7371 4.00463 15.8795C3.86198 16.0219 3.78105 16.2146 3.7793 16.4162V25.8918C3.7793 25.9926 3.79917 26.0924 3.83777 26.1855C3.87637 26.2785 3.93294 26.3631 4.00426 26.4343C4.07557 26.5055 4.16022 26.5619 4.25337 26.6003C4.34651 26.6388 4.44632 26.6585 4.54709 26.6583C5.22706 26.6594 5.87886 26.93 6.35955 27.411C6.84024 27.8919 7.11058 28.5439 7.11129 29.2238C7.11129 29.3246 7.13116 29.4244 7.16976 29.5175C7.20836 29.6105 7.26494 29.6951 7.33625 29.7663C7.40757 29.8375 7.49222 29.8939 7.58536 29.9323C7.67851 29.9708 7.77832 29.9905 7.87908 29.9903H37.2544C37.3552 29.9905 37.455 29.9708 37.5481 29.9323C37.6413 29.8939 37.7259 29.8375 37.7972 29.7663C37.8686 29.6951 37.9251 29.6105 37.9637 29.5175C38.0023 29.4244 38.0222 29.3246 38.0222 29.2238C38.0229 28.5439 38.2933 27.8919 38.7739 27.411C39.2546 26.93 39.9064 26.6594 40.5864 26.6583C40.6872 26.6585 40.787 26.6388 40.8801 26.6003C40.9733 26.5619 41.0579 26.5055 41.1292 26.4343C41.2005 26.3631 41.2571 26.2785 41.2957 26.1855C41.3343 26.0924 41.3542 25.9926 41.3542 25.8918V22.4247C41.3585 22.3213 41.3419 22.2181 41.3053 22.1212C41.2687 22.0244 41.2129 21.936 41.1412 21.8612C41.0695 21.7865 40.9835 21.7271 40.8883 21.6865C40.7931 21.6459 40.6906 21.6249 40.5871 21.6249C40.4835 21.6249 40.3811 21.6459 40.2859 21.6865C40.1906 21.7271 40.1046 21.7865 40.033 21.8612C39.9613 21.936 39.9055 22.0244 39.8689 22.1212C39.8323 22.2181 39.8156 22.3213 39.82 22.4247V25.1963C39.0131 25.3517 38.2713 25.7453 37.6903 26.3264C37.1092 26.9074 36.7156 27.6492 36.5602 28.456H8.56795C8.41252 27.6492 8.0189 26.9074 7.43787 26.3264C6.85684 25.7453 6.11505 25.3517 5.30819 25.1963Z" fill="#FBD846"/>
<path d="M21.5551 18.6323H23.401C23.5989 18.6241 23.786 18.5396 23.9231 18.3967C24.0602 18.2537 24.1368 18.0633 24.1368 17.8652C24.1368 17.6671 24.0602 17.4767 23.9231 17.3338C23.786 17.1908 23.5989 17.1064 23.401 17.0981H22.7978V16.6045C22.8021 16.5011 22.7854 16.3978 22.7488 16.301C22.7122 16.2042 22.6564 16.1157 22.5848 16.041C22.5131 15.9663 22.4271 15.9069 22.3319 15.8662C22.2366 15.8256 22.1342 15.8047 22.0306 15.8047C21.9271 15.8047 21.8247 15.8256 21.7294 15.8662C21.6342 15.9069 21.5482 15.9663 21.4765 16.041C21.4049 16.1157 21.3491 16.2042 21.3124 16.301C21.2758 16.3978 21.2592 16.5011 21.2635 16.6045V17.1168C20.6329 17.1644 20.0464 17.4583 19.6306 17.9348C19.2148 18.4113 19.0032 19.0323 19.0415 19.6635C19.0798 20.2948 19.365 20.8856 19.8353 21.3083C20.3056 21.7311 20.9234 21.9518 21.5551 21.9229H22.5048C22.7383 21.9229 22.9621 22.0156 23.1272 22.1807C23.2922 22.3457 23.385 22.5696 23.385 22.803C23.385 23.0364 23.2922 23.2603 23.1272 23.4254C22.9621 23.5904 22.7383 23.6832 22.5048 23.6832H20.6616C20.5582 23.6788 20.4549 23.6955 20.3581 23.7321C20.2612 23.7687 20.1728 23.8245 20.0981 23.8962C20.0234 23.9678 19.9639 24.0539 19.9233 24.1491C19.8827 24.2443 19.8618 24.3468 19.8618 24.4503C19.8618 24.5538 19.8827 24.6563 19.9233 24.7515C19.9639 24.8467 20.0234 24.9328 20.0981 25.0044C20.1728 25.0761 20.2612 25.1319 20.3581 25.1685C20.4549 25.2051 20.5582 25.2217 20.6616 25.2174H21.2635V25.711C21.2718 25.9089 21.3562 26.096 21.4992 26.2331C21.6421 26.3702 21.8326 26.4467 22.0306 26.4467C22.2287 26.4467 22.4191 26.3702 22.5621 26.2331C22.7051 26.096 22.7895 25.9089 22.7978 25.711V25.1947C23.4289 25.1476 24.0161 24.8539 24.4324 24.3771C24.8486 23.9004 25.0604 23.2789 25.0219 22.6472C24.9834 22.0154 24.6977 21.4243 24.2266 21.0016C23.7556 20.5789 23.137 20.3587 22.5048 20.3886H21.5551C21.4369 20.3932 21.319 20.3739 21.2084 20.3319C21.0979 20.2898 20.9969 20.2259 20.9117 20.1439C20.8264 20.0619 20.7586 19.9635 20.7122 19.8547C20.6659 19.7459 20.642 19.6288 20.642 19.5105C20.642 19.3922 20.6659 19.2751 20.7122 19.1663C20.7586 19.0574 20.8264 18.9591 20.9117 18.8771C20.9969 18.7951 21.0979 18.7311 21.2084 18.6891C21.319 18.647 21.4369 18.6277 21.5551 18.6323Z" fill="#FBD846"/>
<path d="M13.5743 20.6143C13.4326 20.7565 13.3519 20.9485 13.3496 21.1493C13.3495 21.2001 13.3549 21.2508 13.3657 21.3005C13.3751 21.3492 13.3899 21.3968 13.4098 21.4423C13.4282 21.4895 13.4519 21.5344 13.4807 21.576C13.5078 21.6176 13.5392 21.6561 13.5743 21.6911C13.61 21.7268 13.6489 21.759 13.6907 21.7874C13.733 21.8148 13.7777 21.8381 13.8245 21.8569C13.8712 21.8763 13.9195 21.8915 13.9689 21.9024C14.0183 21.9115 14.0685 21.916 14.1187 21.9158C14.3219 21.9151 14.5165 21.8343 14.6605 21.6911C14.6961 21.6558 14.7283 21.6173 14.7568 21.576C14.7835 21.5332 14.8072 21.4885 14.8277 21.4423C14.8454 21.3961 14.8597 21.3487 14.8705 21.3005C14.8808 21.2508 14.8857 21.2001 14.8852 21.1493C14.8841 20.9981 14.8382 20.8506 14.7534 20.7254C14.6686 20.6001 14.5487 20.5028 14.4087 20.4456C14.2687 20.3884 14.1149 20.3739 13.9666 20.4039C13.8184 20.4339 13.6824 20.5071 13.5757 20.6143H13.5743Z" fill="#FBD846"/>
<path d="M30.3771 21.5813C30.4059 21.6223 30.4381 21.6608 30.4734 21.6963C30.5533 21.7768 30.65 21.8385 30.7566 21.877C30.8633 21.9154 30.9771 21.9297 31.09 21.9187C31.2028 21.9077 31.3118 21.8717 31.409 21.8133C31.5061 21.755 31.5891 21.6757 31.6519 21.5813C31.6806 21.5396 31.7044 21.4947 31.7228 21.4475C31.7427 21.402 31.7575 21.3545 31.7669 21.3057C31.7775 21.2569 31.7829 21.2072 31.783 21.1573C31.7873 21.0538 31.7706 20.9506 31.734 20.8537C31.6974 20.7569 31.6416 20.6685 31.57 20.5938C31.4983 20.519 31.4123 20.4596 31.317 20.419C31.2218 20.3784 31.1194 20.3574 31.0158 20.3574C30.9123 20.3574 30.8099 20.3784 30.7146 20.419C30.6194 20.4596 30.5334 20.519 30.4617 20.5938C30.3901 20.6685 30.3342 20.7569 30.2976 20.8537C30.261 20.9506 30.2444 21.0538 30.2487 21.1573C30.249 21.2071 30.2539 21.2568 30.2634 21.3057C30.2741 21.3542 30.2888 21.4016 30.3076 21.4475C30.3271 21.4939 30.3503 21.5387 30.3771 21.5813Z" fill="#FBD846"/>
<path d="M49.7294 33.2048C49.0133 32.6421 48.1121 32.3686 47.2041 32.4384C46.296 32.5083 45.4472 32.9164 44.8257 33.582L39.9741 38.8268C39.9009 38.8999 39.8433 38.9869 39.8045 39.0828C39.7658 39.1787 39.7469 39.2814 39.7488 39.3848C39.7508 39.4882 39.7736 39.5901 39.8159 39.6845C39.8582 39.7788 39.9192 39.8637 39.9951 39.9339C40.071 40.0041 40.1603 40.0583 40.2576 40.0932C40.355 40.128 40.4584 40.1429 40.5616 40.1368C40.6648 40.1307 40.7658 40.1038 40.8584 40.0578C40.9509 40.0118 41.0333 39.9475 41.1004 39.8688L45.9519 34.624C46.3097 34.2405 46.7986 34.0054 47.3216 33.9653C47.8445 33.9251 48.3635 34.0829 48.7756 34.4074C48.9918 34.579 49.1717 34.7919 49.3048 35.0337C49.438 35.2755 49.5217 35.5413 49.5512 35.8157C49.5807 36.0902 49.5554 36.3678 49.4766 36.6323C49.3979 36.8969 49.2674 37.1431 49.0927 37.3568L40.647 47.6858C40.0336 48.4381 39.1599 48.9322 38.1991 49.0703L21.8508 51.4365C21.0204 51.5591 20.2293 51.8711 19.5387 52.3485C18.8482 52.8259 18.2768 53.4557 17.8687 54.1893L17.422 54.9919H2.38319L10.1735 43.479C11.2882 41.8192 12.8358 40.4959 14.6487 39.6525C16.4616 38.8091 18.4707 38.4778 20.4584 38.6944C21.7766 38.8312 23.0749 39.1179 24.3281 39.5491C25.1795 39.8535 26.0764 40.011 26.9806 40.0146H34.7989C35.3982 40.0153 35.9728 40.2537 36.3966 40.6775C36.8204 41.1013 37.0588 41.6759 37.0595 42.2752C37.0588 42.9221 36.8015 43.5422 36.3441 43.9996C35.8867 44.457 35.2665 44.7143 34.6197 44.715H27.4568C26.2843 44.7148 25.1487 45.1246 24.2465 45.8734L22.5638 47.2698C22.4132 47.4017 22.3201 47.5871 22.3043 47.7866C22.2884 47.9861 22.3511 48.1838 22.4789 48.3378C22.6067 48.4918 22.7896 48.5898 22.9886 48.6109C23.1876 48.632 23.3869 48.5746 23.5442 48.451L25.2256 47.0545C25.8507 46.5364 26.6369 46.2526 27.4487 46.2519H34.617C35.6706 46.2505 36.6805 45.8314 37.4255 45.0864C38.1705 44.3414 38.5896 43.3314 38.5911 42.2779C38.5896 41.2719 38.1894 40.3075 37.478 39.5961C36.7667 38.8847 35.8023 38.4845 34.7962 38.4831H26.9806C26.2509 38.4791 25.5272 38.3511 24.8404 38.1045C23.4766 37.6328 22.0634 37.3187 20.6282 37.1682C18.3627 36.9202 16.0725 37.2967 14.0057 38.257C11.9389 39.2174 10.1742 40.7249 8.90272 42.6163L0.301869 55.3236C0.222182 55.4391 0.175662 55.5742 0.167361 55.7143C0.15906 55.8543 0.189296 55.994 0.254784 56.1181C0.320272 56.2421 0.418509 56.3459 0.538824 56.4181C0.659139 56.4903 0.796932 56.5281 0.937235 56.5275H17.8741C18.0113 56.5266 18.1457 56.4888 18.2634 56.4183C18.381 56.3477 18.4775 56.2468 18.5429 56.1262L19.2117 54.9223C19.5051 54.3955 19.9158 53.9432 20.4119 53.6004C20.908 53.2576 21.4763 53.0334 22.0729 52.9453L38.4252 50.5885C39.7658 50.3957 40.9852 49.7063 41.8415 48.6569L50.2871 38.3279C50.5914 37.9571 50.8187 37.5294 50.9559 37.0697C51.093 36.6101 51.1373 36.1277 51.086 35.6508C51.0346 35.1739 50.8889 34.712 50.6571 34.292C50.4253 33.8721 50.1122 33.5025 49.736 33.2048H49.7294Z" fill="black"/>
</svg>
