<svg width="51" height="50" viewBox="0 0 51 50" fill="none" xmlns="http://www.w3.org/2000/svg">
<path d="M49.57 47.1884C44.5224 47.1884 39.4614 47.1884 34.4138 47.1884C26.0281 47.1884 17.6424 47.1884 9.25674 47.1884C6.83391 47.1884 4.42453 47.1884 2.0017 47.1884C2.33821 47.4531 2.67471 47.7178 3.01121 47.9824C3.01121 44.5944 3.01121 41.2065 3.01121 37.8185C3.01121 31.0425 3.01121 24.2665 3.01121 17.4905C3.01121 12.4191 3.01121 7.34772 3.01121 2.2869C3.01121 1.85282 3.01121 1.42932 3.01121 0.995232C2.67471 1.25992 2.33821 1.52461 2.0017 1.78929C7.04927 1.78929 12.1103 1.78929 17.1579 1.78929C25.5436 1.78929 33.9293 1.78929 42.3149 1.78929C44.7378 1.78929 47.1472 1.78929 49.57 1.78929C49.2335 1.52461 48.897 1.25992 48.5605 0.995232C48.5605 4.38322 48.5605 7.77122 48.5605 11.1592C48.5605 17.9352 48.5605 24.7112 48.5605 31.4872C48.5605 36.5586 48.5605 41.63 48.5605 46.6908C48.5605 47.1249 48.5605 47.5484 48.5605 47.9824C48.5605 49.0094 50.5795 49.0094 50.5795 47.9824C50.5795 44.5944 50.5795 41.2065 50.5795 37.8185C50.5795 31.0425 50.5795 24.2665 50.5795 17.4905C50.5795 12.4191 50.5795 7.34772 50.5795 2.2869C50.5795 1.85282 50.5795 1.42932 50.5795 0.995232C50.5795 0.561146 50.1219 0.201172 49.57 0.201172C44.5224 0.201172 39.4614 0.201172 34.4138 0.201172C26.0281 0.201172 17.6424 0.201172 9.25674 0.201172C6.83391 0.201172 4.42453 0.201172 2.0017 0.201172C1.44983 0.201172 0.992188 0.561146 0.992188 0.995232C0.992188 4.38322 0.992188 7.77122 0.992188 11.1592C0.992188 17.9352 0.992188 24.7112 0.992188 31.4872C0.992188 36.5586 0.992188 41.63 0.992188 46.6908C0.992188 47.1249 0.992188 47.5484 0.992188 47.9824C0.992188 48.4165 1.44983 48.7765 2.0017 48.7765C7.04927 48.7765 12.1103 48.7765 17.1579 48.7765C25.5436 48.7765 33.9293 48.7765 42.3149 48.7765C44.7378 48.7765 47.1472 48.7765 49.57 48.7765C50.8756 48.7765 50.8756 47.1884 49.57 47.1884Z" fill="#333333"/>
<path d="M24.875 0.976236C24.875 4.38545 24.875 7.79467 24.875 11.2039C24.875 18.0223 24.875 24.8407 24.875 31.6592C24.875 36.7623 24.875 41.8655 24.875 46.958C24.875 47.3948 24.875 47.821 24.875 48.2578C24.875 49.2912 26.9026 49.2912 26.9026 48.2578C26.9026 44.8486 26.9026 41.4394 26.9026 38.0302C26.9026 31.2117 26.9026 24.3933 26.9026 17.5749C26.9026 12.4717 26.9026 7.36852 26.9026 2.276C26.9026 1.83919 26.9026 1.41304 26.9026 0.976236C26.9026 -0.0571828 24.875 -0.0571828 24.875 0.976236Z" fill="#FBD846"/>
<path d="M2.00683 2.15653C7.07589 2.15653 12.1585 2.15653 17.2275 2.15653C25.6489 2.15653 34.0703 2.15653 42.4917 2.15653C44.9248 2.15653 47.3445 2.15653 49.7776 2.15653C51.0888 2.15653 51.0888 0.128906 49.7776 0.128906C44.7086 0.128906 39.626 0.128906 34.5569 0.128906C26.1355 0.128906 17.7141 0.128906 9.29276 0.128906C6.85961 0.128906 4.43998 0.128906 2.00683 0.128906C0.695639 0.128906 0.695639 2.15653 2.00683 2.15653Z" fill="#333333"/>
<path d="M49.7768 47.0344C44.7077 47.0344 39.6251 47.0344 34.5561 47.0344C26.1347 47.0344 17.7133 47.0344 9.29192 47.0344C6.85877 47.0344 4.43914 47.0344 2.006 47.0344C2.34394 47.3723 2.68187 47.7103 3.01981 48.0482C3.01981 42.898 3.01981 37.7614 3.01981 32.6112C3.01981 24.2574 3.01981 15.9036 3.01981 7.54985C3.01981 5.41409 3.01981 3.27832 3.01981 1.12905C2.68187 1.46698 2.34394 1.80492 2.006 2.14286C7.07505 2.14286 12.1576 2.14286 17.2267 2.14286C25.6481 2.14286 34.0695 2.14286 42.4908 2.14286C44.924 2.14286 47.3436 2.14286 49.7768 2.14286C49.4388 1.80492 49.1009 1.46698 48.763 1.12905C48.763 6.2792 48.763 11.4158 48.763 16.566C48.763 24.9198 48.763 33.2736 48.763 41.6274C48.763 43.7632 48.763 45.8989 48.763 48.0482C48.763 49.3594 50.7906 49.3594 50.7906 48.0482C50.7906 42.898 50.7906 37.7614 50.7906 32.6112C50.7906 24.2574 50.7906 15.9036 50.7906 7.54985C50.7906 5.41409 50.7906 3.27832 50.7906 1.12905C50.7906 0.574829 50.331 0.115234 49.7768 0.115234C44.7077 0.115234 39.6251 0.115234 34.5561 0.115234C26.1347 0.115234 17.7133 0.115234 9.29192 0.115234C6.85877 0.115234 4.43914 0.115234 2.006 0.115234C1.45178 0.115234 0.992188 0.574829 0.992188 1.12905C0.992188 6.2792 0.992188 11.4158 0.992188 16.566C0.992188 24.9198 0.992188 33.2736 0.992188 41.6274C0.992188 43.7632 0.992188 45.8989 0.992188 48.0482C0.992188 48.6024 1.45178 49.062 2.006 49.062C7.07505 49.062 12.1576 49.062 17.2267 49.062C25.6481 49.062 34.0695 49.062 42.4908 49.062C44.924 49.062 47.3436 49.062 49.7768 49.062C51.088 49.062 51.088 47.0344 49.7768 47.0344Z" fill="#333333"/>
<path d="M28.4453 22.4342C28.4453 23.8806 28.4453 25.3134 28.4453 26.7598C28.4453 28.071 30.4729 28.071 30.4729 26.7598C30.4729 25.3134 30.4729 23.8806 30.4729 22.4342C30.4729 21.1365 28.4453 21.1365 28.4453 22.4342Z" fill="#FBD846"/>
<path d="M21.3125 22.4342C21.3125 23.8806 21.3125 25.3134 21.3125 26.7598C21.3125 28.071 23.3401 28.071 23.3401 26.7598C23.3401 25.3134 23.3401 23.8806 23.3401 22.4342C23.3401 21.1365 21.3125 21.1365 21.3125 22.4342Z" fill="#FBD846"/>
</svg>
