<svg width="27" height="30" viewBox="0 0 27 30" fill="none" xmlns="http://www.w3.org/2000/svg">
<path d="M25.1746 15.5234V28.0297C25.1746 28.6187 24.7184 29.0719 24.1255 29.0719H3.00615C2.41317 29.0719 1.95703 28.6187 1.95703 28.0297V15.5234" stroke="#333333" stroke-width="1.5"/>
<path fill-rule="evenodd" clip-rule="evenodd" d="M26.0877 14.4359C26.0877 15.025 25.6316 15.4781 25.0386 15.4781H2.04912C1.45614 15.4781 1 15.025 1 14.4359V9.76875C1 9.17969 1.45614 8.72656 2.04912 8.72656H25.0386C25.6316 8.72656 26.0877 9.17969 26.0877 9.76875V14.4359Z" stroke="#333333" stroke-width="1.5"/>
<path fill-rule="evenodd" clip-rule="evenodd" d="M20.2936 5.41797C19.2901 6.41484 14.7287 9.31485 13.6796 8.31797C12.6761 7.3211 15.5954 2.74453 16.5989 1.74766C17.6024 0.750781 19.2445 0.750781 20.2936 1.74766C21.2971 2.74453 21.2971 4.42109 20.2936 5.41797Z" stroke="#FBD846" stroke-width="1.5"/>
<path fill-rule="evenodd" clip-rule="evenodd" d="M6.74873 5.41758C7.75223 6.41445 12.3593 9.35977 13.3628 8.36289C14.3663 7.36602 11.447 2.78945 10.3978 1.79258C9.39434 0.795703 7.75223 0.795703 6.74873 1.79258C5.74522 2.74414 5.74522 4.37539 6.74873 5.41758Z" stroke="#FBD846" stroke-width="1.5"/>
<path d="M10.3984 12.3961C10.3984 12.3961 11.0826 10.3117 13.7283 9.26953V29.0258" stroke="#FBD846" stroke-width="1.5"/>
<path d="M13.543 9.31445C13.543 9.31445 14.5921 12.9395 18.2412 13.4832" stroke="#FBD846" stroke-width="1.5"/>
</svg>
