<svg width="50" height="50" viewBox="0 0 50 50" fill="none" xmlns="http://www.w3.org/2000/svg">
<circle cx="25" cy="25" r="25" fill="#FBD846"/>
<path d="M20.3333 15.5123V32.3392C20.3333 32.3392 20.0233 35.8707 24.5683 35.8707C28.6667 35.8707 28.6667 32.3392 28.6667 32.3392V14.6419C28.6667 14.6419 28.6667 10 22.8333 10C17 10 17 14.6419 17 14.6419V32.3392C17 32.3392 17 39.0119 24.5 39.0119C32 39.0119 32 32.3392 32 32.3392V14.6419C32 13.9166 30.3333 13.9166 30.3333 14.6419V32.3392C30.3333 32.3392 30.94 37.6932 24.5 37.6932C18.6667 37.6932 18.6667 32.3392 18.6667 32.3392V14.6419C18.6667 14.6419 18.6667 11.3187 22.8333 11.3187C27 11.3187 27 14.6419 27 14.6419V32.3392C27 32.3392 27 34.4202 24.5683 34.4202C22.1367 34.4202 22 32.3392 22 32.3392V15.5123C22 14.787 20.3333 14.787 20.3333 15.5123Z" fill="white"/>
</svg>
