<svg width="35" height="35" viewBox="0 0 35 35" fill="none" xmlns="http://www.w3.org/2000/svg">
<circle cx="17.5" cy="17.5" r="17.5" fill="#FBD846" fill-opacity="0.8"/>
<path d="M16.0421 10.1289C19.3056 10.1289 21.9495 12.7728 21.9495 16.0362C21.9495 17.4469 21.4562 18.7403 20.632 19.7569L24.6926 23.8175C24.9332 24.0581 24.9332 24.4461 24.6926 24.6867C24.452 24.9273 24.0639 24.9273 23.8233 24.6867L19.7628 20.6262C18.7461 21.4503 17.4528 21.9436 16.0421 21.9436C12.7786 21.9436 10.1348 19.2997 10.1348 16.0362C10.1348 12.7728 12.7816 10.1289 16.0421 10.1289ZM16.0421 20.7164C18.6258 20.7164 20.7223 18.62 20.7223 16.0362C20.7223 13.4525 18.6258 11.3561 16.0421 11.3561C13.4584 11.3561 11.362 13.4525 11.362 16.0362C11.362 18.62 13.4584 20.7164 16.0421 20.7164Z" fill="black"/>
</svg>
